<svg viewBox="0 0 48 48" xmlns="http://www.w3.org/2000/svg" fill-rule="evenodd" clip-rule="evenodd" stroke-linejoin="round" stroke-miterlimit="1.414"><g transform="translate(-37.333 -37.333) scale(2.66667)"><clipPath id="a"><path d="M31.64 23.205c0-.638-.058-1.252-.164-1.84H23v3.48h4.843c-.208 1.125-.843 2.08-1.796 2.717v2.258h2.91c1.7-1.567 2.683-3.874 2.683-6.615z"/></clipPath><g clip-path="url(#a)"><path fill="#4385F4" fill-rule="nonzero" d="M18 16.364h18.64V34.82H18z"/></g></g><g transform="translate(-37.333 -37.333) scale(2.66667)"><clipPath id="b"><path d="M23 32c2.43 0 4.467-.805 5.956-2.18l-2.91-2.258c-.805.54-1.836.86-3.046.86-2.345 0-4.33-1.584-5.036-3.712h-3.007v2.332C16.437 29.984 19.48 32 23 32z"/></clipPath><g clip-path="url(#b)"><path fill="#36A755" fill-rule="nonzero" d="M9.957 19.71h24V37h-24z"/></g></g><g transform="translate(-37.333 -37.333) scale(2.66667)"><clipPath id="c"><path d="M17.964 24.71c-.18-.54-.283-1.116-.283-1.71 0-.593.104-1.17.284-1.71v-2.33h-3.007C14.347 20.173 14 21.547 14 23c0 1.453.347 2.827.957 4.042l3.007-2.332z"/></clipPath><g clip-path="url(#c)"><path fill="#FBBB00" fill-rule="nonzero" d="M9 13.96h13.964V32.04H9z"/></g></g><g transform="translate(-37.333 -37.333) scale(2.66667)"><clipPath id="d"><path d="M23 17.58c1.32 0 2.507.454 3.44 1.346l2.58-2.58C27.464 14.89 25.426 14 23 14c-3.52 0-6.562 2.017-8.043 4.96l3.007 2.33c.707-2.127 2.69-3.71 5.036-3.71z"/></clipPath><g clip-path="url(#d)"><path fill="#EA4539" fill-rule="nonzero" d="M9.957 9H34.02v17.29H9.958z"/></g></g></svg>
